<?xml version="1.0" encoding="UTF-8" standalone="no"?>
<svg
   xmlns:dc="http://purl.org/dc/elements/1.1/"
   xmlns:cc="http://creativecommons.org/ns#"
   xmlns:rdf="http://www.w3.org/1999/02/22-rdf-syntax-ns#"
   xmlns:svg="http://www.w3.org/2000/svg"
   xmlns="http://www.w3.org/2000/svg"
   xmlns:sodipodi="http://sodipodi.sourceforge.net/DTD/sodipodi-0.dtd"
   xmlns:inkscape="http://www.inkscape.org/namespaces/inkscape"
   width="11.493mm"
   height="11.209mm"
   viewBox="0 0 11.493 11.209"
   version="1.1"
   id="svg1125"
   inkscape:version="1.0.1 (3bc2e813f5, 2020-09-07)"
   sodipodi:docname="github-logo.svg">
  <defs
     id="defs1119" />
  <sodipodi:namedview
     id="base"
     pagecolor="#ffffff"
     bordercolor="#666666"
     borderopacity="1.0"
     inkscape:pageopacity="0.0"
     inkscape:pageshadow="2"
     inkscape:zoom="1.4"
     inkscape:cx="372.19748"
     inkscape:cy="105.66318"
     inkscape:document-units="mm"
     inkscape:current-layer="layer1"
     inkscape:document-rotation="0"
     showgrid="false"
     inkscape:window-width="1920"
     inkscape:window-height="1043"
     inkscape:window-x="0"
     inkscape:window-y="0"
     inkscape:window-maximized="1" />
  <metadata
     id="metadata1122">
    <rdf:RDF>
      <cc:Work
         rdf:about="">
        <dc:format>image/svg+xml</dc:format>
        <dc:type
           rdf:resource="http://purl.org/dc/dcmitype/StillImage" />
        <dc:title></dc:title>
      </cc:Work>
    </rdf:RDF>
  </metadata>
  <g
     inkscape:label="Layer 1"
     inkscape:groupmode="layer"
     id="layer1">
    <path
       d="M 5.74604,0 C 2.57316,0 0,2.57281 0,5.74675 c 0,2.53894 1.64641,4.69265 3.92994,5.45253 0.28751,0.0529 0.39229,-0.12453 0.39229,-0.27693 0,-0.13652 -0.005,-0.49777 -0.008,-0.97719 C 2.71579,10.29229 2.37854,9.17469 2.37854,9.17469 2.11713,8.51076 1.74036,8.33402 1.74036,8.33402 1.2186,7.97772 1.77986,7.98477 1.77986,7.98477 2.35665,8.02537 2.66004,8.57709 2.66004,8.57709 3.17263,9.45515 4.00518,9.2015 4.33256,9.05439 4.38476,8.68327 4.53329,8.42998 4.69733,8.2864 3.42134,8.14141 2.07972,7.64822 2.07972,5.44618 c 0,-0.62724 0.22402,-1.14053 0.59161,-1.54199 -0.0593,-0.14534 -0.25647,-0.7299 0.0564,-1.52082 0,0 0.48224,-0.15452 1.58009,0.58914 C 4.76608,2.8448 5.25785,2.7813 5.74645,2.77883 c 0.48824,0.002 0.97966,0.066 1.43863,0.19368 1.09713,-0.74366 1.57868,-0.58914 1.57868,-0.58914 0.31362,0.79092 0.11641,1.37548 0.0575,1.52082 0.3683,0.40146 0.59055,0.91475 0.59055,1.54199 0,2.20769 -1.34373,2.69346 -2.62361,2.83563 0.20602,0.17745 0.38982,0.52811 0.38982,1.06398 0,0.76835 -0.007,1.38818 -0.007,1.57656 0,0.15381 0.10372,0.33267 0.39511,0.27658 C 9.8479,10.43728 11.4929,8.28499 11.4929,5.74675 11.4929,2.57281 8.91974,0 5.7458,0"
       style="fill:#ffffff;fill-opacity:1;fill-rule:evenodd;stroke:none;stroke-width:0.0352777"
       id="path106" />
  </g>
</svg>
