<?xml version="1.0" encoding="UTF-8" standalone="no"?>
<svg
   xmlns:dc="http://purl.org/dc/elements/1.1/"
   xmlns:cc="http://creativecommons.org/ns#"
   xmlns:rdf="http://www.w3.org/1999/02/22-rdf-syntax-ns#"
   xmlns:svg="http://www.w3.org/2000/svg"
   xmlns="http://www.w3.org/2000/svg"
   xmlns:xlink="http://www.w3.org/1999/xlink"
   xmlns:sodipodi="http://sodipodi.sourceforge.net/DTD/sodipodi-0.dtd"
   xmlns:inkscape="http://www.inkscape.org/namespaces/inkscape"
   version="1.1"
   id="svg2"
   xml:space="preserve"
   width="122.52"
   height="122.52"
   viewBox="0 0 122.52 122.52"
   sodipodi:docname="logo.svg"
   inkscape:version="1.0.1 (3bc2e813f5, 2020-09-07)"><metadata
     id="metadata8"><rdf:RDF><cc:Work
         rdf:about=""><dc:format>image/svg+xml</dc:format><dc:type
           rdf:resource="http://purl.org/dc/dcmitype/StillImage" /><dc:title></dc:title></cc:Work></rdf:RDF></metadata><defs
     id="defs6"><linearGradient
       id="linearGradient3824"
       inkscape:collect="always"><stop
         id="stop3826"
         style="stop-color:#babdb6"
         offset="0" /><stop
         id="stop3828"
         style="stop-color:#eeeeec"
         offset="1" /></linearGradient><linearGradient
       id="linearGradient2959"
       inkscape:collect="always"><stop
         id="stop2961"
         style="stop-color:#eeeeec"
         offset="0" /><stop
         id="stop2963"
         style="stop-color:#eeeeec;stop-opacity:0"
         offset="1" /></linearGradient><linearGradient
       id="linearGradient3869"
       y2="1115.3"
       xlink:href="#linearGradient3824"
       gradientUnits="userSpaceOnUse"
       x2="-634"
       gradientTransform="matrix(0.24750001,0,0,-0.24750001,-9.1107903,177.54221)"
       y1="1257.2"
       x1="-401.64"
       inkscape:collect="always" /><linearGradient
       id="linearGradient3873"
       y2="619.94"
       gradientUnits="userSpaceOnUse"
       x2="-138.06"
       y1="666.46"
       x1="-98.063"
       inkscape:collect="always"
       gradientTransform="matrix(0.24750001,0,0,-0.24750001,-52.175792,159.22721)"><stop
         id="stop3801"
         style="stop-color:#b1d28f"
         offset="0" /><stop
         id="stop3803"
         style="stop-color:#ffffff"
         offset="1" /></linearGradient><linearGradient
       id="linearGradient3875"
       y2="1117.7"
       gradientUnits="userSpaceOnUse"
       x2="-3.0313"
       y1="756.36"
       x1="-46"
       inkscape:collect="always"
       gradientTransform="matrix(0.24750001,0,0,-0.24750001,-52.175792,159.22721)"><stop
         id="stop2941"
         style="stop-color:#77b753"
         offset="0" /><stop
         id="stop2943"
         style="stop-color:#00892c"
         offset="1" /></linearGradient><linearGradient
       id="linearGradient3877"
       y2="1117.7"
       gradientUnits="userSpaceOnUse"
       x2="-96.043"
       y1="760.36"
       x1="-122"
       inkscape:collect="always"
       gradientTransform="matrix(0.24750001,0,0,-0.24750001,-52.175792,159.22721)"><stop
         id="stop2949"
         style="stop-color:#00892c"
         offset="0" /><stop
         id="stop2951"
         style="stop-color:#006e29"
         offset="1" /></linearGradient><linearGradient
       id="linearGradient3879"
       y2="521.39"
       gradientUnits="userSpaceOnUse"
       x2="-285.49"
       y1="612.99"
       x1="-239.49"
       inkscape:collect="always"
       gradientTransform="matrix(0.24750001,0,0,-0.24750001,-52.175792,159.22721)"><stop
         id="stop3793"
         style="stop-color:#f29b68"
         offset="0" /><stop
         id="stop3795"
         style="stop-color:#ffffff"
         offset="1" /></linearGradient><linearGradient
       id="linearGradient3881"
       y2="1136.4"
       gradientUnits="userSpaceOnUse"
       x2="-192.39"
       y1="650.36"
       x1="-194"
       inkscape:collect="always"
       gradientTransform="matrix(0.24750001,0,0,-0.24750001,-52.175792,159.22721)"><stop
         id="stop2933"
         style="stop-color:#eb7331"
         offset="0" /><stop
         id="stop2935"
         style="stop-color:#cf4913"
         offset="1" /></linearGradient><linearGradient
       id="linearGradient3883"
       y2="1118.4"
       gradientUnits="userSpaceOnUse"
       x2="-286"
       y1="688.36"
       x1="-282"
       inkscape:collect="always"
       gradientTransform="matrix(0.24750001,0,0,-0.24750001,-52.175792,159.22721)"><stop
         id="stop2925"
         style="stop-color:#cf4913"
         offset="0" /><stop
         id="stop2927"
         style="stop-color:#ac4311"
         offset="1" /></linearGradient><linearGradient
       id="linearGradient3885"
       y2="381.35"
       gradientUnits="userSpaceOnUse"
       x2="-513.1"
       gradientTransform="matrix(0.24750001,0,0,-0.24750001,-52.175792,157.72721)"
       y1="475.84"
       x1="-416.63"
       inkscape:collect="always"><stop
         id="stop3785"
         style="stop-color:#6193cf"
         offset="0" /><stop
         id="stop3787"
         style="stop-color:#ffffff"
         offset="1" /></linearGradient><linearGradient
       id="linearGradient3887"
       y2="1182.4"
       gradientUnits="userSpaceOnUse"
       x2="-413.19"
       gradientTransform="matrix(0.24750001,0,0,-0.24750001,-52.175792,157.72721)"
       y1="588.36"
       x1="-356"
       inkscape:collect="always"><stop
         id="stop2917"
         style="stop-color:#2c72c7"
         offset="0" /><stop
         id="stop2919"
         style="stop-color:#0057ae"
         offset="1" /></linearGradient><linearGradient
       id="linearGradient3889"
       y2="1202.4"
       gradientUnits="userSpaceOnUse"
       x2="-463.14"
       gradientTransform="matrix(0.24750001,0,0,-0.24750001,-52.175792,157.72721)"
       y1="670.36"
       x1="-463.14"
       inkscape:collect="always"><stop
         id="stop2909"
         style="stop-color:#0057ae"
         offset="0" /><stop
         id="stop2911"
         style="stop-color:#00438a"
         offset="1" /></linearGradient><linearGradient
       id="linearGradient3891"
       y2="1015.6"
       xlink:href="#linearGradient2959"
       gradientUnits="userSpaceOnUse"
       x2="-415.78"
       gradientTransform="matrix(0.06566423,0,0,0.24750001,-127.05692,-157.72721)"
       y1="509.3"
       x1="-417.19"
       inkscape:collect="always" /><linearGradient
       id="linearGradient3893"
       y2="1015.6"
       xlink:href="#linearGradient2959"
       gradientUnits="userSpaceOnUse"
       x2="-415.78"
       gradientTransform="matrix(0.06566423,0,0,0.17428456,-84.239418,-90.516257)"
       y1="509.3"
       x1="-417.19"
       inkscape:collect="always" /><linearGradient
       id="linearGradient3895"
       y2="1015.6"
       xlink:href="#linearGradient2959"
       gradientUnits="userSpaceOnUse"
       x2="-415.78"
       gradientTransform="matrix(0.06566423,0,0,0.12226253,-48.599664,-40.788555)"
       y1="509.3"
       x1="-417.19"
       inkscape:collect="always" /><linearGradient
       id="linearGradient3897"
       y2="1015.6"
       xlink:href="#linearGradient2959"
       gradientUnits="userSpaceOnUse"
       x2="-415.78"
       gradientTransform="matrix(0.06566423,0,0,0.03211313,42.391072,-91.813798)"
       y1="509.3"
       x1="-417.19"
       inkscape:collect="always" /><linearGradient
       id="linearGradient3899"
       y2="1015.6"
       xlink:href="#linearGradient2959"
       gradientUnits="userSpaceOnUse"
       x2="-415.78"
       gradientTransform="matrix(0.06566423,0,0,0.03211313,79.887323,-114.26947)"
       y1="509.3"
       x1="-417.19"
       inkscape:collect="always" /><linearGradient
       id="linearGradient3901"
       y2="1015.6"
       xlink:href="#linearGradient2959"
       gradientUnits="userSpaceOnUse"
       x2="-415.78"
       gradientTransform="matrix(0.06566423,0,0,0.03211313,126.68215,-140.304)"
       y1="509.3"
       x1="-417.19"
       inkscape:collect="always" /></defs><sodipodi:namedview
     pagecolor="#ffffff"
     bordercolor="#666666"
     borderopacity="1"
     objecttolerance="10"
     gridtolerance="10"
     guidetolerance="10"
     inkscape:pageopacity="0"
     inkscape:pageshadow="2"
     inkscape:window-width="1920"
     inkscape:window-height="1043"
     id="namedview4"
     showgrid="false"
     inkscape:zoom="3.4933073"
     inkscape:cx="73.357048"
     inkscape:cy="80.038122"
     inkscape:window-x="0"
     inkscape:window-y="0"
     inkscape:window-maximized="1"
     inkscape:current-layer="g10" /><g
     id="g10"
     inkscape:groupmode="layer"
     inkscape:label="ink_ext_XXXXXX"
     transform="matrix(1.3333333,0,0,-1.3333333,0,122.52)"><g
       id="g12"
       transform="matrix(0.06598248,0,0,0.06598248,15.630245,27.887475)"><path
         d="M 901.543,500.352 500.352,901.527 c -23.094,23.11 -60.567,23.11 -83.692,0 L 333.359,818.211 439.031,712.535 c 24.563,8.293 52.727,2.727 72.297,-16.847 19.688,-19.696 25.203,-48.102 16.699,-72.75 L 629.883,521.094 c 24.648,8.496 53.066,3.004 72.754,-16.711 27.5,-27.492 27.5,-72.059 0,-99.574 -27.52,-27.516 -72.078,-27.516 -99.61,0 -20.683,20.703 -25.8,51.097 -15.312,76.582 l -95,94.992 V 326.414 c 6.699,-3.32 13.027,-7.742 18.613,-13.312 27.5,-27.497 27.5,-72.059 0,-99.598 -27.5,-27.488 -72.09,-27.488 -99.57,0 -27.5,27.539 -27.5,72.101 0,99.598 6.797,6.789 14.668,11.925 23.066,15.363 v 252.281 c -8.398,3.438 -16.25,8.531 -23.066,15.367 -20.828,20.821 -25.84,51.395 -15.156,76.977 L 292.422,777.285 17.3242,502.211 c -23.10545,-23.129 -23.10545,-60.602 0,-83.711 L 418.535,17.3242 c 23.098,-23.10545 60.559,-23.10545 83.692,0 L 901.543,416.641 c 23.113,23.113 23.113,60.605 0,83.711"
         style="fill:#ffffff;fill-opacity:1;fill-rule:nonzero;stroke:none"
         id="path14" /></g><g
       id="g1092"
       transform="matrix(0.68745371,0,0,0.1123349,125.72161,20.382929)"><path
         id="path2889"
         style="fill:#e9e9ff;fill-rule:evenodd;stroke-width:0.2475"
         d="m -76.945593,5.7920538 24.020618,-12.175763 V -106.55934 l -24.020618,12.175765 z" /><path
         id="path2891"
         style="fill:#353564;fill-rule:evenodd;stroke-width:0.2475"
         d="M -99.968044,-5.0608216 V -105.23645 l 23.020471,10.85238 V 5.7915588 Z" /><path
         id="path2893"
         style="fill:#afafde;fill-rule:evenodd;stroke-width:0.2475"
         d="m -99.968044,-105.22655 24.020619,-12.17576 23.02047,10.85238 -24.020618,12.17576 z" /><path
         id="path2895"
         style="fill:url(#linearGradient3873);fill-rule:evenodd;stroke-width:0.2475"
         d="m -99.968044,-5.0608216 24.020619,-12.1757634 23.02047,10.8523808 -24.020618,12.175763 z" /><path
         id="path2897"
         style="fill:url(#linearGradient3875);fill-rule:evenodd;stroke-width:0.2475"
         d="M -75.946435,-17.237822 V -117.41345 l 23.02047,10.85238 V -6.3854417 Z" /><path
         id="path2899"
         style="fill:url(#linearGradient3877);fill-rule:evenodd;stroke-width:0.2475"
         d="M -99.968044,-5.0608216 -75.947425,-17.236585 V -117.41221 l -24.020619,12.17576 z" /><path
         id="path2869"
         style="fill:#e9e9ff;fill-rule:evenodd;stroke-width:0.2475"
         d="M -111.59559,30.18318 -88.282331,18.365797 V -123.17203 l -23.313259,11.81738 z" /><path
         id="path2871"
         style="fill:#353564;fill-rule:evenodd;stroke-width:0.2475"
         d="M -134.61805,19.330304 V -122.20753 l 23.02048,10.85238 V 30.182685 Z" /><path
         id="path2873"
         style="fill:#afafde;fill-rule:evenodd;stroke-width:0.2475"
         d="m -134.61805,-122.20505 23.31327,-11.81738 23.020469,10.85238 -23.313259,11.81738 z" /><path
         id="path2875"
         style="fill:url(#linearGradient3879);fill-rule:evenodd;stroke-width:0.2475"
         d="M -134.61805,19.330304 -111.30478,7.5129214 -88.284311,18.365302 -111.59757,30.182685 Z" /><path
         id="path2877"
         style="fill:url(#linearGradient3881);fill-rule:evenodd;stroke-width:0.2475"
         d="M -111.30354,7.5121789 V -134.02565 l 23.020467,10.85238 V 18.364559 Z" /><path
         id="path2879"
         style="fill:url(#linearGradient3883);fill-rule:evenodd;stroke-width:0.2475"
         d="M -134.61805,19.330304 -111.30478,7.5129214 V -134.02491 l -23.31327,11.81738 z" /><path
         id="path2849"
         style="fill:#e9e9ff;fill-rule:evenodd;stroke-width:0.2475"
         d="m -156.1456,63.343231 24.72773,-12.534143 V -143.06757 l -24.72773,12.53414 z" /><path
         id="path2851"
         style="fill:#353564;fill-rule:evenodd;stroke-width:0.2475"
         d="M -179.16805,52.490356 V -141.3863 l 23.02047,10.85238 V 63.342736 Z" /><path
         id="path2853"
         style="fill:#afafde;fill-rule:evenodd;stroke-width:0.2475"
         d="m -179.16805,-141.3863 24.72773,-12.53415 23.02047,10.85239 -24.72773,12.53414 z" /><path
         id="path2855"
         style="fill:url(#linearGradient3885);fill-rule:evenodd;stroke-width:0.2475"
         d="m -179.16805,52.490356 24.72773,-12.534143 23.02047,10.85238 -24.72773,12.534143 z" /><path
         id="path2857"
         style="fill:url(#linearGradient3887);fill-rule:evenodd;stroke-width:0.2475"
         d="M -154.44032,39.956955 V -153.9197 l 23.02047,10.85238 V 50.809336 Z" /><path
         id="path2859"
         style="fill:url(#linearGradient3889);fill-rule:evenodd;stroke-width:0.2475"
         d="m -179.16805,52.490356 24.72773,-12.534143 V -153.92045 l -24.72773,12.53415 z" /><rect
         id="rect2957"
         style="opacity:0.78195;fill:url(#linearGradient3891);stroke-width:0.2475"
         height="190.75815"
         width="0.74250001"
         y="-40.07328"
         x="-154.72989"
         transform="scale(1,-1)" /><rect
         id="rect3739"
         style="opacity:0.78195;fill:url(#linearGradient3893);stroke-width:0.2475"
         height="134.32816"
         width="0.74250001"
         y="-7.6656299"
         x="-111.91239"
         transform="scale(1,-1)" /><rect
         id="rect3743"
         style="opacity:0.78195;fill:url(#linearGradient3895);stroke-width:0.2475"
         height="94.233154"
         width="0.74250001"
         y="17.331871"
         x="-76.272644"
         transform="scale(1,-1)" /><rect
         id="rect3747"
         style="opacity:0.78195;fill:url(#linearGradient3897);stroke-width:0.2475"
         transform="matrix(-0.40673663,0.91354546,0.91354546,0.40673663,0,0)"
         height="24.75"
         width="0.74250001"
         y="-76.550476"
         x="14.718096" /><rect
         id="rect3751"
         style="opacity:0.78195;fill:url(#linearGradient3899);stroke-width:0.2475"
         transform="matrix(-0.40673663,0.91354546,0.91354546,0.40673663,0,0)"
         height="24.75"
         width="0.74250001"
         y="-99.003677"
         x="52.214348" /><rect
         id="rect3755"
         style="opacity:0.78195;fill:url(#linearGradient3901);stroke-width:0.2475"
         transform="matrix(-0.40673663,0.91354546,0.91354546,0.40673663,0,0)"
         height="24.75"
         width="0.74250001"
         y="-125.03819"
         x="99.009178" /></g></g></svg>
